<?xml version="1.0" encoding="UTF-8" standalone="no"?>
<svg
   xmlns:dc="http://purl.org/dc/elements/1.1/"
   xmlns:cc="http://creativecommons.org/ns#"
   xmlns:rdf="http://www.w3.org/1999/02/22-rdf-syntax-ns#"
   xmlns:svg="http://www.w3.org/2000/svg"
   xmlns="http://www.w3.org/2000/svg"
   viewBox="0 0 576 384"
   height="384"
   width="576"
   xml:space="preserve"
   id="svg2"
   version="1.1"><metadata
     id="metadata8"><rdf:RDF><cc:Work
         rdf:about=""><dc:format>image/svg+xml</dc:format><dc:type
           rdf:resource="http://purl.org/dc/dcmitype/StillImage" /></cc:Work></rdf:RDF></metadata><defs
     id="defs6"><clipPath
       id="clipPath18"
       clipPathUnits="userSpaceOnUse"><path
         id="path16"
         d="M 0,288 H 432 V 0 H 0 Z" /></clipPath><clipPath
       id="clipPath72"
       clipPathUnits="userSpaceOnUse"><path
         id="path70"
         d="M 0,288 H 432 V 0 H 0 Z" /></clipPath></defs><g
     transform="matrix(1.3333333,0,0,-1.3333333,0,384)"
     id="g10"><g
       id="g12"><g
         clip-path="url(#clipPath18)"
         id="g14"><path
           id="path20"
           style="fill:#99a1a8;fill-opacity:1;fill-rule:nonzero;stroke:none"
           d="m 132.491,74.974 c 0,0 -17.145,-0.719 -20.423,-4.077 -3.277,-3.357 -3.277,-9.113 -0.504,-11.271 2.773,-2.157 11.85,-4.556 29.5,-5.516 13.037,-1.578 10.304,-5.577 19.918,-5.515 0.756,0 10.899,-3.174 23.45,-1.917 12.548,1.257 17.398,5.274 22.692,5.274 5.296,0 20.674,-5.515 30.763,-5.515 10.084,0 16.888,-0.479 21.176,3.596 4.287,4.077 5.801,5.037 6.051,7.436 0.252,2.397 1.01,4.796 -0.503,6.474 -1.512,1.679 -40.845,10.074 -40.845,10.074 l -91.275,0.957" /><path
           id="path22"
           style="fill:#62656a;fill-opacity:1;fill-rule:nonzero;stroke:none"
           d="m 224.008,40.357 0.57,-1.626 c 0.096,-0.27 0.174,-0.51 0.235,-0.75 h 0.017 c 0.066,0.24 0.15,0.48 0.246,0.75 l 0.565,1.626 h 0.551 l -1.14,-2.904 h -0.504 l -1.104,2.904 z" /><path
           id="path24"
           style="fill:#62656a;fill-opacity:1;fill-rule:nonzero;stroke:none"
           d="m 226.689,40.357 h 0.528 v -2.904 h -0.528 z m 0.253,0.535 c -0.198,0 -0.33,0.155 -0.33,0.341 0,0.186 0.138,0.336 0.342,0.336 0.204,0 0.336,-0.15 0.336,-0.336 0,-0.186 -0.132,-0.341 -0.342,-0.341 z" /><path
           id="path26"
           style="fill:#62656a;fill-opacity:1;fill-rule:nonzero;stroke:none"
           d="m 228.094,39.571 c 0,0.306 -0.006,0.546 -0.024,0.786 h 0.468 l 0.03,-0.474 h 0.012 c 0.145,0.27 0.481,0.54 0.96,0.54 0.402,0 1.026,-0.239 1.026,-1.235 v -1.735 h -0.528 v 1.674 c 0,0.468 -0.174,0.864 -0.672,0.864 -0.342,0 -0.612,-0.246 -0.708,-0.54 -0.024,-0.066 -0.036,-0.162 -0.036,-0.246 v -1.752 h -0.528 z" /><path
           id="path28"
           style="fill:#62656a;fill-opacity:1;fill-rule:nonzero;stroke:none"
           d="m 233.267,39.193 c 0.005,0.33 -0.139,0.858 -0.727,0.858 -0.54,0 -0.768,-0.491 -0.81,-0.858 z m -1.542,-0.378 c 0.011,-0.713 0.462,-1.007 0.989,-1.007 0.379,0 0.612,0.065 0.805,0.143 l 0.095,-0.372 c -0.185,-0.084 -0.51,-0.185 -0.971,-0.185 -0.889,0 -1.429,0.593 -1.429,1.463 0,0.882 0.522,1.572 1.368,1.572 0.948,0 1.194,-0.834 1.194,-1.367 0,-0.109 -0.005,-0.193 -0.017,-0.252 z" /><path
           id="path30"
           style="fill:#62656a;fill-opacity:1;fill-rule:nonzero;stroke:none"
           d="m 236.272,39.193 c 0.006,0.33 -0.138,0.858 -0.726,0.858 -0.54,0 -0.768,-0.491 -0.81,-0.858 z m -1.542,-0.378 c 0.012,-0.713 0.462,-1.007 0.99,-1.007 0.379,0 0.612,0.065 0.804,0.143 l 0.096,-0.372 c -0.185,-0.084 -0.51,-0.185 -0.972,-0.185 -0.888,0 -1.428,0.593 -1.428,1.463 0,0.882 0.522,1.572 1.368,1.572 0.948,0 1.194,-0.834 1.194,-1.367 0,-0.109 -0.006,-0.193 -0.017,-0.252 z" /><path
           id="path32"
           style="fill:#62656a;fill-opacity:1;fill-rule:nonzero;stroke:none"
           d="m 239.416,39.175 c 0,0.072 -0.006,0.156 -0.024,0.228 -0.078,0.33 -0.366,0.606 -0.762,0.606 -0.546,0 -0.87,-0.48 -0.87,-1.115 0,-0.595 0.294,-1.081 0.858,-1.081 0.354,0 0.678,0.24 0.774,0.63 0.018,0.072 0.024,0.144 0.024,0.228 z m 0.528,2.538 v -3.51 c 0,-0.258 0.006,-0.552 0.024,-0.75 h -0.474 l -0.024,0.504 h -0.012 c -0.162,-0.324 -0.51,-0.57 -0.984,-0.57 -0.702,0 -1.248,0.594 -1.248,1.476 -0.006,0.972 0.6,1.56 1.302,1.56 0.451,0 0.75,-0.21 0.876,-0.438 h 0.012 v 1.728 z" /><path
           id="path34"
           style="fill:#62656a;fill-opacity:1;fill-rule:nonzero;stroke:none"
           d="m 242.775,39.217 c 0,0.084 -0.005,0.162 -0.029,0.234 -0.097,0.312 -0.349,0.565 -0.738,0.565 -0.504,0 -0.864,-0.427 -0.864,-1.105 0,-0.564 0.294,-1.044 0.858,-1.044 0.33,0 0.624,0.204 0.731,0.546 0.031,0.084 0.042,0.187 0.042,0.282 z m 0.529,-1.338 c 0,-0.672 -0.138,-1.074 -0.414,-1.332 -0.288,-0.258 -0.697,-0.348 -1.062,-0.348 -0.349,0 -0.732,0.084 -0.966,0.24 l 0.132,0.408 c 0.192,-0.126 0.492,-0.234 0.852,-0.234 0.54,0 0.936,0.283 0.936,1.02 v 0.318 h -0.012 c -0.156,-0.27 -0.474,-0.486 -0.924,-0.486 -0.72,0 -1.237,0.612 -1.237,1.422 0,0.984 0.643,1.536 1.315,1.536 0.504,0 0.774,-0.258 0.906,-0.498 h 0.012 l 0.017,0.432 h 0.469 c -0.018,-0.204 -0.024,-0.438 -0.024,-0.792 z" /><path
           id="path36"
           style="fill:#62656a;fill-opacity:1;fill-rule:nonzero;stroke:none"
           d="m 246.017,39.193 c 0.005,0.33 -0.139,0.858 -0.727,0.858 -0.54,0 -0.768,-0.491 -0.81,-0.858 z m -1.542,-0.378 c 0.011,-0.713 0.462,-1.007 0.989,-1.007 0.379,0 0.612,0.065 0.805,0.143 l 0.095,-0.372 c -0.185,-0.084 -0.51,-0.185 -0.971,-0.185 -0.889,0 -1.429,0.593 -1.429,1.463 0,0.882 0.522,1.572 1.368,1.572 0.948,0 1.194,-0.834 1.194,-1.367 0,-0.109 -0.005,-0.193 -0.017,-0.252 z" /><path
           id="path38"
           style="fill:#62656a;fill-opacity:1;fill-rule:nonzero;stroke:none"
           d="m 248.38,37.783 c 0.504,0 0.882,0.474 0.882,1.134 0,0.492 -0.245,1.11 -0.869,1.11 -0.619,0 -0.889,-0.576 -0.889,-1.128 0,-0.636 0.36,-1.116 0.87,-1.116 z m -0.018,-0.396 c -0.78,0 -1.392,0.576 -1.392,1.494 0,0.973 0.642,1.542 1.44,1.542 0.834,0 1.399,-0.606 1.399,-1.487 0,-1.081 -0.75,-1.549 -1.441,-1.549 z" /><path
           id="path40"
           style="fill:#62656a;fill-opacity:1;fill-rule:nonzero;stroke:none"
           d="m 250.48,39.451 c 0,0.342 -0.005,0.636 -0.024,0.906 h 0.462 l 0.024,-0.57 h 0.018 c 0.132,0.39 0.456,0.636 0.811,0.636 0.053,0 0.095,-0.006 0.143,-0.018 v -0.492 c -0.06,0.006 -0.114,0.012 -0.185,0.012 -0.373,0 -0.637,-0.281 -0.708,-0.672 -0.013,-0.078 -0.019,-0.162 -0.019,-0.252 v -1.548 h -0.527 z" /><path
           id="path42"
           style="fill:#62656a;fill-opacity:1;fill-rule:nonzero;stroke:none"
           d="m 254.344,39.217 c 0,0.084 -0.006,0.162 -0.03,0.234 -0.096,0.312 -0.348,0.565 -0.738,0.565 -0.504,0 -0.864,-0.427 -0.864,-1.105 0,-0.564 0.294,-1.044 0.858,-1.044 0.33,0 0.624,0.204 0.732,0.546 0.03,0.084 0.042,0.187 0.042,0.282 z m 0.528,-1.338 c 0,-0.672 -0.138,-1.074 -0.414,-1.332 -0.288,-0.258 -0.696,-0.348 -1.062,-0.348 -0.348,0 -0.732,0.084 -0.965,0.24 l 0.132,0.408 c 0.191,-0.126 0.492,-0.234 0.851,-0.234 0.54,0 0.937,0.283 0.937,1.02 v 0.318 h -0.013 c -0.155,-0.27 -0.474,-0.486 -0.924,-0.486 -0.72,0 -1.236,0.612 -1.236,1.422 0,0.984 0.642,1.536 1.314,1.536 0.504,0 0.775,-0.258 0.906,-0.498 h 0.012 l 0.018,0.432 h 0.468 c -0.018,-0.204 -0.024,-0.438 -0.024,-0.792 z" /><path
           id="path44"
           style="fill:#62656a;fill-opacity:1;fill-rule:nonzero;stroke:none"
           d="m 257.584,39.193 c 0.006,0.33 -0.139,0.858 -0.727,0.858 -0.54,0 -0.767,-0.491 -0.809,-0.858 z m -1.542,-0.378 c 0.012,-0.713 0.462,-1.007 0.989,-1.007 0.379,0 0.613,0.065 0.805,0.143 l 0.096,-0.372 c -0.186,-0.084 -0.51,-0.185 -0.972,-0.185 -0.889,0 -1.429,0.593 -1.429,1.463 0,0.882 0.523,1.572 1.368,1.572 0.949,0 1.195,-0.834 1.195,-1.367 0,-0.109 -0.006,-0.193 -0.018,-0.252 z" /><path
           id="path46"
           style="fill:#62656a;fill-opacity:1;fill-rule:nonzero;stroke:none"
           d="m 261.13,40.213 c -0.061,0.024 -0.162,0.048 -0.301,0.048 -0.533,0 -0.96,-0.498 -0.96,-1.08 0,-0.27 0.133,-0.455 0.397,-0.455 0.347,0 0.672,0.443 0.738,0.815 z m 0.323,-2.586 c -0.329,-0.174 -0.666,-0.24 -1.067,-0.24 -0.985,0 -1.819,0.72 -1.819,1.872 0,1.236 0.859,2.304 2.191,2.304 1.044,0 1.74,-0.732 1.74,-1.734 0,-0.9 -0.498,-1.428 -1.062,-1.428 -0.241,0 -0.457,0.157 -0.445,0.528 h -0.017 c -0.216,-0.354 -0.493,-0.528 -0.853,-0.528 -0.348,0 -0.647,0.283 -0.647,0.756 0,0.744 0.588,1.422 1.422,1.422 0.257,0 0.492,-0.054 0.641,-0.126 l -0.197,-1.086 c -0.09,-0.456 -0.025,-0.666 0.174,-0.672 0.305,-0.011 0.647,0.402 0.647,1.092 0,0.876 -0.521,1.5 -1.451,1.5 -0.979,0 -1.801,-0.774 -1.801,-1.998 0,-0.996 0.654,-1.614 1.542,-1.614 0.349,0 0.666,0.072 0.906,0.21 z" /><path
           id="path48"
           style="fill:#62656a;fill-opacity:1;fill-rule:nonzero;stroke:none"
           d="m 265.125,39.217 c 0,0.084 -0.006,0.162 -0.029,0.234 -0.097,0.312 -0.349,0.565 -0.739,0.565 -0.503,0 -0.864,-0.427 -0.864,-1.105 0,-0.564 0.294,-1.044 0.859,-1.044 0.33,0 0.624,0.204 0.731,0.546 0.03,0.084 0.042,0.187 0.042,0.282 z m 0.528,-1.338 c 0,-0.672 -0.137,-1.074 -0.414,-1.332 -0.288,-0.258 -0.696,-0.348 -1.061,-0.348 -0.349,0 -0.733,0.084 -0.966,0.24 l 0.132,0.408 c 0.191,-0.126 0.492,-0.234 0.851,-0.234 0.54,0 0.937,0.283 0.937,1.02 v 0.318 h -0.013 c -0.155,-0.27 -0.473,-0.486 -0.924,-0.486 -0.719,0 -1.236,0.612 -1.236,1.422 0,0.984 0.643,1.536 1.314,1.536 0.504,0 0.775,-0.258 0.907,-0.498 h 0.011 l 0.018,0.432 h 0.469 c -0.019,-0.204 -0.025,-0.438 -0.025,-0.792 z" /><path
           id="path50"
           style="fill:#62656a;fill-opacity:1;fill-rule:nonzero;stroke:none"
           d="m 266.523,39.571 c 0,0.306 -0.011,0.546 -0.023,0.786 h 0.462 l 0.024,-0.468 h 0.018 c 0.162,0.276 0.432,0.534 0.918,0.534 0.39,0 0.69,-0.239 0.816,-0.582 h 0.012 c 0.09,0.168 0.21,0.288 0.33,0.378 0.174,0.133 0.36,0.204 0.636,0.204 0.389,0 0.96,-0.252 0.96,-1.26 v -1.71 h -0.516 v 1.644 c 0,0.564 -0.21,0.894 -0.63,0.894 -0.306,0 -0.534,-0.221 -0.63,-0.473 -0.024,-0.079 -0.042,-0.175 -0.042,-0.265 v -1.8 h -0.516 v 1.74 c 0,0.468 -0.204,0.798 -0.606,0.798 -0.324,0 -0.57,-0.263 -0.654,-0.528 -0.03,-0.078 -0.042,-0.168 -0.042,-0.258 v -1.752 h -0.517 z" /><path
           id="path52"
           style="fill:#62656a;fill-opacity:1;fill-rule:nonzero;stroke:none"
           d="m 273.058,38.936 c -0.577,0.011 -1.23,-0.091 -1.23,-0.655 0,-0.347 0.228,-0.504 0.492,-0.504 0.384,0 0.63,0.241 0.714,0.486 0.018,0.054 0.024,0.114 0.024,0.168 z m 0.516,-0.787 c 0,-0.252 0.012,-0.498 0.042,-0.696 h -0.474 l -0.048,0.366 h -0.018 c -0.156,-0.228 -0.474,-0.432 -0.888,-0.432 -0.588,0 -0.888,0.414 -0.888,0.834 0,0.702 0.624,1.087 1.746,1.08 v 0.06 c 0,0.241 -0.067,0.678 -0.66,0.672 -0.277,0 -0.558,-0.078 -0.762,-0.216 l -0.12,0.354 c 0.24,0.15 0.594,0.252 0.96,0.252 0.893,0 1.11,-0.606 1.11,-1.188 z" /><path
           id="path54"
           style="fill:#62656a;fill-opacity:1;fill-rule:nonzero;stroke:none"
           d="m 274.42,40.357 h 0.527 v -2.904 h -0.527 z m 0.252,0.535 c -0.198,0 -0.33,0.155 -0.33,0.341 0,0.186 0.137,0.336 0.342,0.336 0.204,0 0.336,-0.15 0.336,-0.336 0,-0.186 -0.132,-0.341 -0.342,-0.341 z" /><path
           id="path56"
           style="fill:#62656a;fill-opacity:1;fill-rule:nonzero;stroke:none"
           d="m 275.824,41.713 h 0.527 v -4.26 h -0.527 z" /><path
           id="path58"
           style="fill:#62656a;fill-opacity:1;fill-rule:nonzero;stroke:none"
           d="m 277.449,37.387 c -0.204,0 -0.348,0.162 -0.348,0.378 0,0.216 0.15,0.379 0.36,0.379 0.21,0 0.354,-0.157 0.354,-0.379 0,-0.216 -0.144,-0.378 -0.36,-0.378 z" /><path
           id="path60"
           style="fill:#62656a;fill-opacity:1;fill-rule:nonzero;stroke:none"
           d="m 280.539,37.555 c -0.138,-0.066 -0.443,-0.168 -0.834,-0.168 -0.876,0 -1.446,0.594 -1.446,1.488 0,0.895 0.612,1.548 1.56,1.548 0.312,0 0.588,-0.078 0.732,-0.155 l -0.119,-0.403 c -0.126,0.066 -0.325,0.138 -0.613,0.138 -0.666,0 -1.026,-0.498 -1.026,-1.104 0,-0.671 0.433,-1.086 1.008,-1.086 0.301,0 0.498,0.072 0.648,0.138 z" /><path
           id="path62"
           style="fill:#62656a;fill-opacity:1;fill-rule:nonzero;stroke:none"
           d="m 282.321,37.783 c 0.504,0 0.882,0.474 0.882,1.134 0,0.492 -0.245,1.11 -0.869,1.11 -0.618,0 -0.889,-0.576 -0.889,-1.128 0,-0.636 0.361,-1.116 0.87,-1.116 z m -0.017,-0.396 c -0.781,0 -1.393,0.576 -1.393,1.494 0,0.973 0.643,1.542 1.441,1.542 0.834,0 1.398,-0.606 1.398,-1.487 0,-1.081 -0.75,-1.549 -1.44,-1.549 z" /><path
           id="path64"
           style="fill:#62656a;fill-opacity:1;fill-rule:nonzero;stroke:none"
           d="m 284.416,39.571 c 0,0.306 -0.013,0.546 -0.024,0.786 h 0.462 l 0.024,-0.468 h 0.018 c 0.162,0.276 0.431,0.534 0.917,0.534 0.39,0 0.691,-0.239 0.817,-0.582 h 0.012 c 0.089,0.168 0.21,0.288 0.33,0.378 0.174,0.133 0.36,0.204 0.635,0.204 0.391,0 0.96,-0.252 0.96,-1.26 v -1.71 h -0.515 v 1.644 c 0,0.564 -0.21,0.894 -0.63,0.894 -0.307,0 -0.534,-0.221 -0.63,-0.473 -0.024,-0.079 -0.042,-0.175 -0.042,-0.265 v -1.8 h -0.517 v 1.74 c 0,0.468 -0.204,0.798 -0.605,0.798 -0.324,0 -0.57,-0.263 -0.654,-0.528 -0.031,-0.078 -0.042,-0.168 -0.042,-0.258 v -1.752 h -0.516 z" /></g></g><g
       id="g66"><g
         clip-path="url(#clipPath72)"
         id="g68"><path
           id="path74"
           style="fill:#231f20;fill-opacity:1;fill-rule:nonzero;stroke:none"
           d="m 201.573,64.003 c -2.878,-0.72 -10.552,-5.035 -11.991,-5.516 -1.438,-0.478 -5.516,-3.837 -10.071,-4.797 -4.557,-0.958 -12.71,1.201 -12.71,1.201 0,0 -18.705,6.234 -19.665,6.234 -0.959,0 -15.347,4.077 -16.306,4.797 -0.96,0.72 -3.339,3.805 -1.9,5.962 1.438,2.159 3.394,3.718 3.394,3.718 0,0 -2.901,9.023 -2.182,14.297 0.719,5.278 5.484,8.157 8.841,9.117 3.357,0.959 4.328,2.439 4.328,2.439 0,0 1.72,2.118 2.386,3.316 0.668,1.197 2.639,2.158 2.639,2.158 l 0.479,2.158 c 0,0 -1.918,5.995 -0.959,7.914 0.959,1.918 4.796,3.117 5.995,7.194 1.199,4.077 1.919,14.628 5.516,20.863 3.597,6.235 3.238,4.692 5.774,7.353 2.538,2.661 7.175,9.673 8.135,11.353 0.958,1.678 4.316,5.515 4.316,7.913 0,2.398 -2.878,22.542 -2.158,29.016 0.719,6.476 3.117,11.272 5.994,15.109 2.878,3.837 7.196,7.674 7.196,7.674 0,0 3.597,3.837 9.832,3.837 6.234,0 14.628,-2.158 18.465,-5.517 3.837,-3.357 8.872,-5.754 11.03,-11.99 1.384,-4.842 3.296,-15.238 3.677,-18.42 0.381,-3.182 -0.669,-8.443 -0.079,-12.754 0.588,-4.313 2.276,-7.29 3.597,-9.113 1.321,-1.823 19.185,-23.981 22.302,-36.212 3.118,-12.23 2.639,-18.704 2.639,-21.822 0,-3.118 -0.96,-7.194 -0.96,-7.194 0,0 2.669,-1.057 3.868,-2.975 1.2,-1.919 0.651,-9.728 0.93,-10.694 0.274,-0.968 1.663,-2.721 2.573,-3.375 0.913,-0.652 3.545,-2.553 4.984,-2.793 1.439,-0.239 4.176,-2.495 4.654,-4.654 0.479,-2.158 1.217,-4.526 -1.422,-6.204 -2.638,-1.68 -15.287,-8.934 -16.055,-9.558 -0.974,-0.79 -7.206,-6.51 -8.167,-7.709 -0.957,-1.199 -6.392,-4.551 -8.31,-4.79 -1.92,-0.239 -9.404,-0.524 -14.471,3.831 -2.073,1.782 -5.754,5.755 -9.112,6.476 -3.357,0.718 -12.974,2.424 -12.974,2.424 0,0 -1.174,0.453 -4.052,-0.267" /><path
           id="path76"
           style="fill:#f0be49;fill-opacity:1;fill-rule:nonzero;stroke:none"
           d="m 132.324,67.279 c 0,0 11.035,-3.576 13.674,-4.295 2.637,-0.719 19.664,-6.235 21.342,-6.474 1.679,-0.24 9.729,-2.729 12.607,-0.57 2.878,2.159 7.793,7.91 2.741,16.636 -5.276,9.113 -8.632,10.792 -8.632,10.792 l -4.077,5.036 -2.878,4.796 c 0,0 -1.679,4.797 -3.118,6.236 -1.439,1.438 -1.679,4.554 -5.276,6.473 -2.477,1.321 -7.691,1.546 -9.61,0.109 -1.918,-1.44 -5.786,-6.746 -5.786,-6.746 0,0 -5.467,-1.516 -6.666,-2.235 -1.199,-0.721 -4.077,-3.117 -4.556,-4.797 -0.48,-1.678 -0.96,-4.556 -0.24,-7.433 0.719,-2.878 1.539,-7.586 1.928,-8.237 0.485,-0.807 0.324,-1.859 0.324,-1.859 0,0 -4.171,-1.895 -4.171,-3.574 0,-1.678 1.424,-3.049 1.424,-3.049 z" /><path
           id="path78"
           style="fill:#f2c96d;fill-opacity:1;fill-rule:nonzero;stroke:none"
           d="m 146.558,66.74 c 0,0 1.997,-0.719 4.636,-1.438 2.637,-0.719 16.866,-5.676 18.543,-5.914 1.68,-0.242 5.516,-1.2 8.394,0.959 2.878,2.157 7.674,4.315 4.077,11.751 -4.391,9.076 -8.632,10.79 -8.632,10.79 l -3.804,4.804 -3.151,5.028 c 0,0 -1.689,4.218 -3.118,6.236 -1.175,1.659 -2.822,5.523 -5.46,6.483 -2.638,0.959 -6.768,1.565 -8.687,0.126 -1.918,-1.439 -4.318,-5.89 -4.318,-5.89 0,0 -2.877,-4.796 -4.077,-5.516 -1.198,-0.72 -3.357,-3.836 -3.837,-5.516 -0.479,-1.678 -0.239,-2.397 0.48,-5.275 0.72,-2.878 3.241,-6.251 3.001,-6.97 -0.239,-0.718 -0.868,-2.17 -0.868,-2.17 0,0 -1.972,-1.333 -1.972,-3.011 0,-1.68 5.115,-2.879 5.115,-2.879 z" /><path
           id="path80"
           style="fill:#f0c04c;fill-opacity:1;fill-rule:nonzero;stroke:none"
           d="m 227.591,58.127 c 0,0 -3.269,2.303 -3.089,8.065 0.24,7.587 2.789,10.463 2.789,13.5 0,3.037 -0.478,6.554 -0.478,6.554 0,0 -0.84,10.371 -0.376,13.423 0.447,2.953 1.814,5.761 3.891,6.081 2.079,0.321 5.148,-1.901 5.599,-2.718 1.318,-2.398 3.391,-6.487 3.391,-6.487 0,0 2.462,-4.253 5.179,-4.095 2.716,0.159 7.829,8.069 10.599,9.756 1.782,1.083 4.492,0.987 5.291,0.507 0.796,-0.479 2.397,-2.237 2.554,-4.156 0.163,-1.919 -0.797,-6.077 -0.318,-8.155 0.481,-2.077 2.719,-4.477 4.478,-5.595 1.756,-1.119 6.397,-2.878 7.193,-3.996 0.799,-1.119 1.759,-3.678 0.159,-5.276 -1.597,-1.599 -5.432,-3.516 -5.432,-3.516 L 263.422,68.5 c 0,0 -4.796,-2.561 -5.754,-3.357 -0.96,-0.798 -6.873,-6.393 -8.314,-7.514 -1.437,-1.119 -2.983,-3.233 -5.201,-3.875 -1.696,-0.492 -5.968,-1.349 -8.046,-0.548 -2.078,0.8 -4.767,2.031 -4.767,2.031 z" /><path
           id="path82"
           style="fill:#f2c96d;fill-opacity:1;fill-rule:nonzero;stroke:none"
           d="m 232.83,89.931 c 0,0 -0.741,-1.605 -0.261,-3.204 0.478,-1.6 -0.159,-6.394 -1.12,-9.593 -0.96,-3.198 -3.516,-6.557 -1.6,-11.191 1.92,-4.635 8.476,-8.955 12.63,-8.633 4.157,0.319 9.594,5.917 11.993,7.513 2.397,1.599 9.111,3.837 10.23,4.796 1.119,0.96 4.635,1.922 5.436,2.72 0.799,0.798 5.176,2.863 5.176,4.781 0,1.917 0.259,3.052 -1.821,4.49 -2.077,1.438 -6.072,3.197 -6.552,3.517 -0.48,0.32 -3.358,3.358 -3.836,3.999 -0.48,0.639 -0.482,4.953 -0.641,6.072 -0.159,1.122 -2.878,2.237 -4.476,1.919 -1.598,-0.318 -3.678,-3.034 -6.076,-6.554 -2.398,-3.517 -4.18,-4.63 -5.779,-4.63 -1.597,0 -5.094,0.633 -6.691,1.753 -1.599,1.12 -2.988,3.108 -4.636,3.197 -1.645,0.088 -1.976,-0.952 -1.976,-0.952" /><path
           id="path84"
           style="fill:#ffffff;fill-opacity:1;fill-rule:nonzero;stroke:none"
           d="m 183.966,171.138 c 0,0 1.919,-0.64 3.518,-1.918 1.599,-1.28 5.435,-4.319 9.271,-4.478 3.838,-0.159 6.238,0.641 8.316,2.719 2.078,2.078 3.996,4.156 4.956,4.636 0.958,0.48 3.037,1.278 3.037,1.278 l 3.198,2.559 c 0,0 0.321,-3.837 1.439,-6.236 1.118,-2.397 4.317,-6.713 5.115,-10.39 0.798,-3.679 1.599,-8.315 3.358,-10.872 1.759,-2.558 7.353,-9.115 8.632,-13.589 1.28,-4.477 2.88,-12.151 1.76,-16.947 -1.119,-4.796 -1.918,-12.31 -1.918,-12.31 0,0 -2.238,1.438 -3.678,1.438 -1.439,0 -2.157,-0.324 -3.544,-1.303 -1.598,-1.129 -2.691,-4.771 -2.691,-6.689 v -12.79 c 0,0 -5.595,-4.638 -6.555,-5.756 -0.959,-1.118 -9.595,-8.474 -11.832,-9.432 -2.236,-0.96 -10.39,-3.519 -14.867,-1.44 -4.477,2.08 -5.749,2.336 -6.229,2.978 -0.479,0.64 -7.181,8.868 -7.181,8.868 l -0.819,0.944 c 0,0 4.872,-0.645 6.311,1.432 1.438,2.078 1.69,4.321 1.044,5.921 -0.98,2.427 -1.988,4.034 -3.519,5.597 -3.313,3.388 -10.39,7.195 -11.351,8.153 -0.958,0.96 -6.553,6.555 -7.032,8.954 -0.48,2.398 -1.44,6.872 0.318,11.349 1.759,4.478 6.395,10.711 7.675,13.91 1.278,3.197 2.238,6.394 2.238,8.632 0,2.239 -0.16,4.317 1.12,6.716 1.277,2.397 2.876,3.677 4.155,5.435 1.28,1.759 3.837,4.157 4.796,6.715 0.959,2.558 0.959,5.116 0.959,5.116 z" /><path
           id="path86"
           style="fill:#b6b5b5;fill-opacity:1;fill-rule:nonzero;stroke:none"
           d="m 190.782,129.913 c -0.425,-4.391 -1.074,-8.725 -1.743,-13.083 -0.867,-5.651 -0.21,-11.15 -0.174,-16.812 -0.001,0.189 0.76,0.824 0.758,1.232 -0.037,5.68 -0.569,11.138 0.174,16.813 0.572,4.368 1.318,8.691 1.743,13.083 -0.021,-0.219 -0.717,-0.811 -0.758,-1.233" /><path
           id="path88"
           style="fill:#bbbaba;fill-opacity:1;fill-rule:nonzero;stroke:none"
           d="m 224.896,150.673 c 0,0 -3.359,-1.759 -4.318,-1.918 -0.961,-0.16 -5.755,-0.638 -6.715,-0.638 -0.959,0 -1.757,-0.96 -1.278,-1.44 0.48,-0.48 7.513,-2.718 9.272,-3.836 1.759,-1.12 6.394,-3.198 8.632,-3.838 2.24,-0.64 2.878,-0.48 2.878,-0.48 0,0 -2.079,3.998 -2.718,4.637 -0.637,0.639 -1.277,1.758 -2.716,3.196 -1.439,1.44 -1.918,2.718 -2.237,3.358 -0.321,0.64 -0.8,1.28 -0.8,1.28" /><path
           id="path90"
           style="fill:#bbbaba;fill-opacity:1;fill-rule:nonzero;stroke:none"
           d="m 174.916,154.573 c 0,0 0.319,-3.516 1.278,-5.115 0.96,-1.6 3.358,-3.998 3.358,-3.998 0,0 -6.235,-3.037 -7.035,-4.156 l -0.799,-1.119 0.361,2.446 c 0,0 0.626,1.863 0.762,2.829 0.15,1.064 0.09,3.061 0.09,4.849 0,1.758 1.985,4.264 1.985,4.264" /><path
           id="path92"
           style="fill:#bbbaba;fill-opacity:1;fill-rule:nonzero;stroke:none"
           d="m 234.648,105.59 0.257,1.93 c 0,0 -2.973,1.907 -5.533,1.907 -2.559,0 -5.077,-1.568 -5.719,-2.527 -0.639,-0.959 -2.904,-4.821 -3.394,-7.706 -0.35,-2.056 0.157,-7.674 0.798,-9.753 0.641,-2.077 0.626,-5.753 0.626,-5.753 l 3.052,2.558 c 0,0 0.161,4.634 0.161,6.393 0,1.759 -0.487,5.519 -0.007,7.918 0.48,2.398 1.098,3.409 2.537,5.168 1.493,1.826 4.369,1.118 5.253,0.743 1.001,-0.426 1.969,-0.878 1.969,-0.878" /><path
           id="path94"
           style="fill:#ffffff;fill-opacity:1;fill-rule:nonzero;stroke:none"
           d="m 193.202,191.925 c -0.47,-4.459 -4.255,-8.19 -7.65,-7.832 -3.396,0.358 -5.4,3.6 -4.93,8.061 0.47,4.459 4.494,8.477 7.892,8.12 3.395,-0.359 5.157,-3.888 4.688,-8.349" /><path
           id="path96"
           style="fill:#ffffff;fill-opacity:1;fill-rule:nonzero;stroke:none"
           d="m 217.221,192.726 c -0.317,-2.845 -3.01,-6.871 -5.546,-8.182 -1.437,-0.743 -3.375,1.319 -4.977,2.348 -3.625,2.331 -5.815,2.046 -5.316,6.503 0.496,4.457 4.636,8.438 8.919,7.961 4.284,-0.479 7.414,-4.172 6.92,-8.63" /><path
           id="path98"
           style="fill:#231f20;fill-opacity:1;fill-rule:nonzero;stroke:none"
           d="m 192.631,190.496 c 0,-2.621 -1.868,-4.746 -4.174,-4.746 -2.305,0 -4.174,2.125 -4.174,4.746 0,2.621 1.869,4.745 4.174,4.745 2.306,0 4.174,-2.124 4.174,-4.745" /><path
           id="path100"
           style="fill:#231f20;fill-opacity:1;fill-rule:nonzero;stroke:none"
           d="m 212.405,191.058 c 0,-2.621 -1.868,-4.746 -4.173,-4.746 -0.865,0 -1.669,0.299 -2.335,0.81 -1.109,0.854 -1.839,2.297 -1.839,3.936 0,2.621 1.869,4.745 4.174,4.745 2.305,0 4.173,-2.124 4.173,-4.745" /><path
           id="path102"
           style="fill:#ffffff;fill-opacity:1;fill-rule:nonzero;stroke:none"
           d="m 190.572,192.965 c 0,-0.753 -0.564,-1.363 -1.259,-1.363 -0.694,0 -1.258,0.61 -1.258,1.363 0,0.751 0.564,1.362 1.258,1.362 0.695,0 1.259,-0.611 1.259,-1.362" /><path
           id="path104"
           style="fill:#ffffff;fill-opacity:1;fill-rule:nonzero;stroke:none"
           d="m 211.501,191.707 c 0,-0.752 -0.565,-1.363 -1.257,-1.363 -0.697,0 -1.26,0.611 -1.26,1.363 0,0.751 0.563,1.362 1.26,1.362 0.692,0 1.257,-0.611 1.257,-1.362" /><path
           id="path106"
           style="fill:#eebc48;fill-opacity:1;fill-rule:nonzero;stroke:none"
           d="m 215.782,181.21 -0.36,-2.758 c 0,0 -1.679,-0.96 -2.038,-1.2 -0.361,-0.239 -2.879,-0.838 -3.598,-0.838 -0.719,0 -2.637,-1.08 -4.196,-1.32 -1.559,-0.239 -3.117,-1.798 -3.597,-2.517 -0.48,-0.72 -2.638,-1.919 -3.238,-2.159 -0.6,-0.24 -2.517,-0.96 -3.477,-0.839 -0.959,0.119 -2.878,0.719 -3.238,1.079 -0.36,0.36 -3.358,0.839 -3.358,0.839 l -2.158,1.199 -1.678,1.439 -1.199,1.079 -0.838,0.839 1.088,-0.381 c 0,0 2.028,-1.776 2.987,-2.376 0.96,-0.6 3.118,-0.6 3.838,-0.839 0.719,-0.241 2.278,-1.919 3.717,-1.919 1.439,0 3.836,0.48 5.036,1.199 1.198,0.72 3.477,3.238 4.796,3.957 1.319,0.72 2.758,1.558 4.076,1.558 1.32,0 1.966,-0.105 3.508,0.121 1.648,0.239 2.368,0.959 2.608,1.678 0.24,0.72 0.24,2.398 0.24,2.398 l -3.238,1.559 c 0,0 -2.638,1.199 -3.237,1.799 -0.6,0.599 -3.478,2.877 -4.557,3.237 -1.079,0.36 -1.919,1.199 -3.836,1.199 -1.919,0 -3.597,0.72 -5.036,-0.12 -1.439,-0.839 -3.599,-2.398 -3.958,-2.998 -0.36,-0.599 -2.398,-1.558 -3.117,-1.678 -0.72,-0.12 -2.279,-1.079 -2.878,-1.439 -0.598,-0.36 -2.037,-0.959 -2.757,-2.758 -0.719,-1.798 -0.96,-4.437 0,-5.755 0.959,-1.319 3.956,-3.357 5.275,-3.717 1.318,-0.36 3.477,-2.758 4.196,-3.118 0.721,-0.359 2.998,-1.679 5.277,-1.918 2.278,-0.24 4.077,-0.48 5.875,0.719 1.799,1.199 3.358,3.237 4.797,4.317 1.438,1.079 2.996,2.758 4.076,2.997 1.079,0.24 2.398,0.959 2.878,1.319 0.479,0.36 2.159,1.679 2.159,2.758 0,1.079 0.119,3.237 0.119,3.237 l -1.079,0.48" /><path
           id="path108"
           style="fill:#f3ca68;fill-opacity:1;fill-rule:nonzero;stroke:none"
           d="m 209.426,183.728 c 0,0 -1.558,-0.6 -2.038,-0.36 -0.48,0.239 -5.516,2.757 -6.834,2.757 -1.32,0 -7.194,-0.959 -8.753,-2.038 -1.559,-1.079 -4.437,-2.877 -4.917,-4.316 -0.479,-1.439 -0.119,-3.478 1.439,-4.197 1.559,-0.719 3.357,-1.439 4.437,-2.878 1.079,-1.439 1.079,-2.278 2.398,-2.278 1.319,0 2.758,0.479 3.957,1.319 1.198,0.84 3.494,2.691 4.893,3.78 1.354,1.054 2.422,1.616 3.979,1.616 1.56,0 4.108,0.03 5.067,0.51 0.959,0.48 1.409,0.689 1.409,1.408 0,0.72 0.839,1.799 0.24,2.398 -0.599,0.6 -2.968,1.379 -3.747,1.769 -0.688,0.344 -1.53,0.51 -1.53,0.51" /><path
           id="path110"
           style="fill:#f3ca68;fill-opacity:1;fill-rule:nonzero;stroke:none"
           d="m 191.001,170.601 c 0,0 4.02,-3.162 5.339,-3.162 1.32,0 2.874,-0.57 3.473,-0.57 0.275,0 -0.527,-0.396 1.917,0.259 l -0.221,-0.788 c 0,0 2.517,0.93 2.996,1.889 0.761,1.523 3.146,2.479 3.36,2.908 0.479,0.959 2.073,1.983 3.152,2.582 1.079,0.6 1.616,0.592 2.584,1.023 0.7,0.312 2.797,2.701 2.797,2.701 l -1.813,0.206 c 0,0 -4.306,-1.191 -4.666,-1.191 -0.358,0 -2.913,-1.245 -4.093,-1.245 -1.555,0 -3.597,-2.277 -3.957,-2.757 -0.36,-0.48 -2.522,-1.751 -2.522,-1.751 l -3.059,-1.142 -2.747,0.467 z" /></g></g></g></svg>